<?xml version="1.0" encoding="iso-8859-1"?>
<!-- Generator: Adobe Illustrator 19.0.0, SVG Export Plug-In . SVG Version: 6.00 Build 0)  -->
<svg version="1.1" id="Capa_1" xmlns="http://www.w3.org/2000/svg" xmlns:xlink="http://www.w3.org/1999/xlink" x="0px" y="0px"
	 viewBox="0 0 448 448" style="enable-background:new 0 0 448 448;" xml:space="preserve">
<g>
	<path style="fill:#9F2BFB;" d="M350.781,182.8l-20.8-20.8c-7.2-7.2-15.2-13.6-24-18.4c-4.8-8.8-11.2-16.8-18.4-24l-84-84.8
		c-46.4-46.4-121.6-46.4-168,0c-23.2,24-35.2,54.4-35.2,84.8s12,60.8,34.4,84l84,84c7.2,7.2,15.2,13.6,24,18.4
		c4.8,8.8,11.2,16.8,18.4,24l63.2,62.4l20.8,20.8c46.4,46.4,121.6,46.4,168,0c23.2-23.2,34.4-53.6,34.4-84s-12-60.8-34.4-84
		L350.781,182.8z M245.181,245.2c-12,11.2-26.4,17.6-42.4,17.6c-5.6,0-10.4-0.8-15.2-2.4c-5.6-20,0-41.6,15.2-57.6
		c12-12,26.4-17.6,42.4-17.6c5.6,0,10.4,0.8,15.2,2.4C265.981,207.6,261.181,230,245.181,245.2z M77.181,161.2
		c-23.2-23.2-23.2-60.8,0-84c12-12,27.2-17.6,42.4-17.6c15.2,0,30.4,5.6,42.4,17.6l20.8,20.8l32,32c-19.2,4.8-38.4,15.2-53.6,30.4
		c-15.2,15.2-25.6,33.6-30.4,53.6L77.181,161.2z M371.581,371.6c-12,11.2-27.2,17.6-42.4,17.6c-15.2,0-30.4-5.6-42.4-17.6
		l-53.6-53.6c19.2-5.6,38.4-15.2,53.6-30.4c15.2-15.2,25.6-33.6,30.4-53.6l53.6,53.6C394.781,310.8,394.781,348.4,371.581,371.6z"/>
	<path style="fill:#7720BC;" d="M413.981,245.2l-63.2-63.2l-20.8-20.8c-7.2-7.2-15.2-13.6-24-18.4c-28-16.8-60.8-20.8-91.2-12.8
		c-19.2,4.8-38.4,15.2-53.6,30.4c-15.2,15.2-25.6,33.6-30.4,53.6l9.6,9.6l20.8,20.8c8,8,16.8,12.8,26.4,15.2
		c-5.6-20,0-41.6,15.2-57.6c12-12,26.4-17.6,42.4-17.6c5.6,0,10.4,0.8,15.2,2.4c9.6,2.4,19.2,7.2,26.4,15.2l20.8,20.8l9.6,9.6
		l53.6,53.6c23.2,23.2,23.2,60.8,0,84c-12,11.2-27.2,17.6-42.4,17.6c-15.2,0-30.4-5.6-42.4-17.6l-53.6-53.6
		c-30.4,8-63.2,4-91.2-12.8c4.8,8.8,11.2,16.8,18.4,24l64.8,64.8l20.8,20.8c46.4,46.4,121.6,46.4,168,0c23.2-23.2,34.4-53.6,34.4-84
		C448.381,298.8,436.381,268.4,413.981,245.2z"/>
</g>
<g>
</g>
<g>
</g>
<g>
</g>
<g>
</g>
<g>
</g>
<g>
</g>
<g>
</g>
<g>
</g>
<g>
</g>
<g>
</g>
<g>
</g>
<g>
</g>
<g>
</g>
<g>
</g>
<g>
</g>
</svg>
